<svg width="512" height="512" viewBox="0 0 512 512" fill="none" xmlns="http://www.w3.org/2000/svg">
  <rect width="512" height="512" rx="100" fill="#0f172a"/>
  <path d="M256 96C167.6 96 96 167.6 96 256C96 344.4 167.6 416 256 416C344.4 416 416 344.4 416 256C416 167.6 344.4 96 256 96ZM256 368C194.2 368 144 317.8 144 256C144 194.2 194.2 144 256 144C317.8 144 368 194.2 368 256C368 317.8 317.8 368 256 368Z" fill="#1e293b"/>
  <path d="M300 160H260V300C260 322.1 242.1 340 220 340C197.9 340 180 322.1 180 300C180 277.9 197.9 260 220 260V220C175.8 220 140 255.8 140 300C140 344.2 175.8 380 220 380C264.2 380 300 344.2 300 300V160Z" fill="#22c55e"/>
</svg>
